<svg width="914" height="784" viewBox="0 0 914 784" fill="none" xmlns="http://www.w3.org/2000/svg">
<g id="workspaces_map">
<rect width="914" height="784" fill="white"/>
<g id="workspace_55">
<g id="desk_1">
<path d="M407 689.5C418.874 689.5 428.5 699.126 428.5 711C428.5 722.874 418.874 732.5 407 732.5C395.126 732.5 385.5 722.874 385.5 711C385.5 699.126 395.126 689.5 407 689.5Z" fill="#2C2C2C"/>
<path d="M407 689.5C418.874 689.5 428.5 699.126 428.5 711C428.5 722.874 418.874 732.5 407 732.5C395.126 732.5 385.5 722.874 385.5 711C385.5 699.126 395.126 689.5 407 689.5Z" stroke="#2C2C2C" stroke-linecap="round"/>
<g id="Monitor">
<path id="Icon" d="M403.667 718.5H410.333M407 715.167V718.5M400.333 703.5H413.667C414.587 703.5 415.333 704.246 415.333 705.167V713.5C415.333 714.42 414.587 715.167 413.667 715.167H400.333C399.413 715.167 398.667 714.42 398.667 713.5V705.167C398.667 704.246 399.413 703.5 400.333 703.5Z" stroke="#F5F5F5" stroke-width="2" stroke-linecap="round" stroke-linejoin="round"/>
</g>
</g>
</g>
<g id="workspace_56">
<g id="desk_2">
<path d="M482 689.5C493.874 689.5 503.5 699.126 503.5 711C503.5 722.874 493.874 732.5 482 732.5C470.126 732.5 460.5 722.874 460.5 711C460.5 699.126 470.126 689.5 482 689.5Z" fill="#2C2C2C"/>
<path d="M482 689.5C493.874 689.5 503.5 699.126 503.5 711C503.5 722.874 493.874 732.5 482 732.5C470.126 732.5 460.5 722.874 460.5 711C460.5 699.126 470.126 689.5 482 689.5Z" stroke="#2C2C2C" stroke-linecap="round"/>
<g id="Monitor_2">
<path id="Icon_2" d="M478.667 718.5H485.333M482 715.167V718.5M475.333 703.5H488.667C489.587 703.5 490.333 704.246 490.333 705.167V713.5C490.333 714.42 489.587 715.167 488.667 715.167H475.333C474.413 715.167 473.667 714.42 473.667 713.5V705.167C473.667 704.246 474.413 703.5 475.333 703.5Z" stroke="#F5F5F5" stroke-width="2" stroke-linecap="round" stroke-linejoin="round"/>
</g>
</g>
</g>
<g id="workspace_57">
<g id="desk_3">
<path d="M557 689.5C568.874 689.5 578.5 699.126 578.5 711C578.5 722.874 568.874 732.5 557 732.5C545.126 732.5 535.5 722.874 535.5 711C535.5 699.126 545.126 689.5 557 689.5Z" fill="#2C2C2C"/>
<path d="M557 689.5C568.874 689.5 578.5 699.126 578.5 711C578.5 722.874 568.874 732.5 557 732.5C545.126 732.5 535.5 722.874 535.5 711C535.5 699.126 545.126 689.5 557 689.5Z" stroke="#2C2C2C" stroke-linecap="round"/>
<g id="Monitor_3">
<path id="Icon_3" d="M553.667 718.5H560.333M557 715.167V718.5M550.333 703.5H563.667C564.587 703.5 565.333 704.246 565.333 705.167V713.5C565.333 714.42 564.587 715.167 563.667 715.167H550.333C549.413 715.167 548.667 714.42 548.667 713.5V705.167C548.667 704.246 549.413 703.5 550.333 703.5Z" stroke="#F5F5F5" stroke-width="2" stroke-linecap="round" stroke-linejoin="round"/>
</g>
</g>
</g>
<g id="workspace_58">
<g id="desk_4">
<path d="M632 689.5C643.874 689.5 653.5 699.126 653.5 711C653.5 722.874 643.874 732.5 632 732.5C620.126 732.5 610.5 722.874 610.5 711C610.5 699.126 620.126 689.5 632 689.5Z" fill="#2C2C2C"/>
<path d="M632 689.5C643.874 689.5 653.5 699.126 653.5 711C653.5 722.874 643.874 732.5 632 732.5C620.126 732.5 610.5 722.874 610.5 711C610.5 699.126 620.126 689.5 632 689.5Z" stroke="#2C2C2C" stroke-linecap="round"/>
<g id="Monitor_4">
<path id="Icon_4" d="M628.667 718.5H635.333M632 715.167V718.5M625.333 703.5H638.667C639.587 703.5 640.333 704.246 640.333 705.167V713.5C640.333 714.42 639.587 715.167 638.667 715.167H625.333C624.413 715.167 623.667 714.42 623.667 713.5V705.167C623.667 704.246 624.413 703.5 625.333 703.5Z" stroke="#F5F5F5" stroke-width="2" stroke-linecap="round" stroke-linejoin="round"/>
</g>
</g>
</g>
<g id="workspace_59">
<g id="desk_5">
<path d="M707 689.5C718.874 689.5 728.5 699.126 728.5 711C728.5 722.874 718.874 732.5 707 732.5C695.126 732.5 685.5 722.874 685.5 711C685.5 699.126 695.126 689.5 707 689.5Z" fill="#2C2C2C"/>
<path d="M707 689.5C718.874 689.5 728.5 699.126 728.5 711C728.5 722.874 718.874 732.5 707 732.5C695.126 732.5 685.5 722.874 685.5 711C685.5 699.126 695.126 689.5 707 689.5Z" stroke="#2C2C2C" stroke-linecap="round"/>
<g id="Monitor_5">
<path id="Icon_5" d="M703.667 718.5H710.333M707 715.167V718.5M700.333 703.5H713.667C714.587 703.5 715.333 704.246 715.333 705.167V713.5C715.333 714.42 714.587 715.167 713.667 715.167H700.333C699.413 715.167 698.667 714.42 698.667 713.5V705.167C698.667 704.246 699.413 703.5 700.333 703.5Z" stroke="#F5F5F5" stroke-width="2" stroke-linecap="round" stroke-linejoin="round"/>
</g>
</g>
</g>
<g id="workspace_60">
<g id="desk_6">
<path d="M782 689.5C793.874 689.5 803.5 699.126 803.5 711C803.5 722.874 793.874 732.5 782 732.5C770.126 732.5 760.5 722.874 760.5 711C760.5 699.126 770.126 689.5 782 689.5Z" fill="#2C2C2C"/>
<path d="M782 689.5C793.874 689.5 803.5 699.126 803.5 711C803.5 722.874 793.874 732.5 782 732.5C770.126 732.5 760.5 722.874 760.5 711C760.5 699.126 770.126 689.5 782 689.5Z" stroke="#2C2C2C" stroke-linecap="round"/>
<g id="Monitor_6">
<path id="Icon_6" d="M778.667 718.5H785.333M782 715.167V718.5M775.333 703.5H788.667C789.587 703.5 790.333 704.246 790.333 705.167V713.5C790.333 714.42 789.587 715.167 788.667 715.167H775.333C774.413 715.167 773.667 714.42 773.667 713.5V705.167C773.667 704.246 774.413 703.5 775.333 703.5Z" stroke="#F5F5F5" stroke-width="2" stroke-linecap="round" stroke-linejoin="round"/>
</g>
</g>
</g>
<g id="workspace_49">
<g id="desk_1_2">
<path d="M407 629.5C418.874 629.5 428.5 639.126 428.5 651C428.5 662.874 418.874 672.5 407 672.5C395.126 672.5 385.5 662.874 385.5 651C385.5 639.126 395.126 629.5 407 629.5Z" fill="#2C2C2C"/>
<path d="M407 629.5C418.874 629.5 428.5 639.126 428.5 651C428.5 662.874 418.874 672.5 407 672.5C395.126 672.5 385.5 662.874 385.5 651C385.5 639.126 395.126 629.5 407 629.5Z" stroke="#2C2C2C" stroke-linecap="round"/>
<g id="Monitor_7">
<path id="Icon_7" d="M403.667 658.5H410.333M407 655.167V658.5M400.333 643.5H413.667C414.587 643.5 415.333 644.246 415.333 645.167V653.5C415.333 654.42 414.587 655.167 413.667 655.167H400.333C399.413 655.167 398.667 654.42 398.667 653.5V645.167C398.667 644.246 399.413 643.5 400.333 643.5Z" stroke="#F5F5F5" stroke-width="2" stroke-linecap="round" stroke-linejoin="round"/>
</g>
</g>
</g>
<g id="workspace_50">
<g id="desk_2_2">
<path d="M482 629.5C493.874 629.5 503.5 639.126 503.5 651C503.5 662.874 493.874 672.5 482 672.5C470.126 672.5 460.5 662.874 460.5 651C460.5 639.126 470.126 629.5 482 629.5Z" fill="#2C2C2C"/>
<path d="M482 629.5C493.874 629.5 503.5 639.126 503.5 651C503.5 662.874 493.874 672.5 482 672.5C470.126 672.5 460.5 662.874 460.5 651C460.5 639.126 470.126 629.5 482 629.5Z" stroke="#2C2C2C" stroke-linecap="round"/>
<g id="Monitor_8">
<path id="Icon_8" d="M478.667 658.5H485.333M482 655.167V658.5M475.333 643.5H488.667C489.587 643.5 490.333 644.246 490.333 645.167V653.5C490.333 654.42 489.587 655.167 488.667 655.167H475.333C474.413 655.167 473.667 654.42 473.667 653.5V645.167C473.667 644.246 474.413 643.5 475.333 643.5Z" stroke="#F5F5F5" stroke-width="2" stroke-linecap="round" stroke-linejoin="round"/>
</g>
</g>
</g>
<g id="workspace_51">
<g id="desk_3_2">
<path d="M557 629.5C568.874 629.5 578.5 639.126 578.5 651C578.5 662.874 568.874 672.5 557 672.5C545.126 672.5 535.5 662.874 535.5 651C535.5 639.126 545.126 629.5 557 629.5Z" fill="#2C2C2C"/>
<path d="M557 629.5C568.874 629.5 578.5 639.126 578.5 651C578.5 662.874 568.874 672.5 557 672.5C545.126 672.5 535.5 662.874 535.5 651C535.5 639.126 545.126 629.5 557 629.5Z" stroke="#2C2C2C" stroke-linecap="round"/>
<g id="Monitor_9">
<path id="Icon_9" d="M553.667 658.5H560.333M557 655.167V658.5M550.333 643.5H563.667C564.587 643.5 565.333 644.246 565.333 645.167V653.5C565.333 654.42 564.587 655.167 563.667 655.167H550.333C549.413 655.167 548.667 654.42 548.667 653.5V645.167C548.667 644.246 549.413 643.5 550.333 643.5Z" stroke="#F5F5F5" stroke-width="2" stroke-linecap="round" stroke-linejoin="round"/>
</g>
</g>
</g>
<g id="workspace_52">
<g id="desk_4_2">
<path d="M632 629.5C643.874 629.5 653.5 639.126 653.5 651C653.5 662.874 643.874 672.5 632 672.5C620.126 672.5 610.5 662.874 610.5 651C610.5 639.126 620.126 629.5 632 629.5Z" fill="#2C2C2C"/>
<path d="M632 629.5C643.874 629.5 653.5 639.126 653.5 651C653.5 662.874 643.874 672.5 632 672.5C620.126 672.5 610.5 662.874 610.5 651C610.5 639.126 620.126 629.5 632 629.5Z" stroke="#2C2C2C" stroke-linecap="round"/>
<g id="Monitor_10">
<path id="Icon_10" d="M628.667 658.5H635.333M632 655.167V658.5M625.333 643.5H638.667C639.587 643.5 640.333 644.246 640.333 645.167V653.5C640.333 654.42 639.587 655.167 638.667 655.167H625.333C624.413 655.167 623.667 654.42 623.667 653.5V645.167C623.667 644.246 624.413 643.5 625.333 643.5Z" stroke="#F5F5F5" stroke-width="2" stroke-linecap="round" stroke-linejoin="round"/>
</g>
</g>
</g>
<g id="workspace_53">
<g id="desk_5_2">
<path d="M707 629.5C718.874 629.5 728.5 639.126 728.5 651C728.5 662.874 718.874 672.5 707 672.5C695.126 672.5 685.5 662.874 685.5 651C685.5 639.126 695.126 629.5 707 629.5Z" fill="#2C2C2C"/>
<path d="M707 629.5C718.874 629.5 728.5 639.126 728.5 651C728.5 662.874 718.874 672.5 707 672.5C695.126 672.5 685.5 662.874 685.5 651C685.5 639.126 695.126 629.5 707 629.5Z" stroke="#2C2C2C" stroke-linecap="round"/>
<g id="Monitor_11">
<path id="Icon_11" d="M703.667 658.5H710.333M707 655.167V658.5M700.333 643.5H713.667C714.587 643.5 715.333 644.246 715.333 645.167V653.5C715.333 654.42 714.587 655.167 713.667 655.167H700.333C699.413 655.167 698.667 654.42 698.667 653.5V645.167C698.667 644.246 699.413 643.5 700.333 643.5Z" stroke="#F5F5F5" stroke-width="2" stroke-linecap="round" stroke-linejoin="round"/>
</g>
</g>
</g>
<g id="workspace_54">
<g id="desk_6_2">
<path d="M782 629.5C793.874 629.5 803.5 639.126 803.5 651C803.5 662.874 793.874 672.5 782 672.5C770.126 672.5 760.5 662.874 760.5 651C760.5 639.126 770.126 629.5 782 629.5Z" fill="#2C2C2C"/>
<path d="M782 629.5C793.874 629.5 803.5 639.126 803.5 651C803.5 662.874 793.874 672.5 782 672.5C770.126 672.5 760.5 662.874 760.5 651C760.5 639.126 770.126 629.5 782 629.5Z" stroke="#2C2C2C" stroke-linecap="round"/>
<g id="Monitor_12">
<path id="Icon_12" d="M778.667 658.5H785.333M782 655.167V658.5M775.333 643.5H788.667C789.587 643.5 790.333 644.246 790.333 645.167V653.5C790.333 654.42 789.587 655.167 788.667 655.167H775.333C774.413 655.167 773.667 654.42 773.667 653.5V645.167C773.667 644.246 774.413 643.5 775.333 643.5Z" stroke="#F5F5F5" stroke-width="2" stroke-linecap="round" stroke-linejoin="round"/>
</g>
</g>
</g>
<g id="workspace_43">
<g id="desk_1_3">
<path d="M407 569.5C418.874 569.5 428.5 579.126 428.5 591C428.5 602.874 418.874 612.5 407 612.5C395.126 612.5 385.5 602.874 385.5 591C385.5 579.126 395.126 569.5 407 569.5Z" fill="#2C2C2C"/>
<path d="M407 569.5C418.874 569.5 428.5 579.126 428.5 591C428.5 602.874 418.874 612.5 407 612.5C395.126 612.5 385.5 602.874 385.5 591C385.5 579.126 395.126 569.5 407 569.5Z" stroke="#2C2C2C" stroke-linecap="round"/>
<g id="Monitor_13">
<path id="Icon_13" d="M403.667 598.5H410.333M407 595.167V598.5M400.333 583.5H413.667C414.587 583.5 415.333 584.246 415.333 585.167V593.5C415.333 594.42 414.587 595.167 413.667 595.167H400.333C399.413 595.167 398.667 594.42 398.667 593.5V585.167C398.667 584.246 399.413 583.5 400.333 583.5Z" stroke="#F5F5F5" stroke-width="2" stroke-linecap="round" stroke-linejoin="round"/>
</g>
</g>
</g>
<g id="workspace_44">
<g id="desk_2_3">
<path d="M482 569.5C493.874 569.5 503.5 579.126 503.5 591C503.5 602.874 493.874 612.5 482 612.5C470.126 612.5 460.5 602.874 460.5 591C460.5 579.126 470.126 569.5 482 569.5Z" fill="#2C2C2C"/>
<path d="M482 569.5C493.874 569.5 503.5 579.126 503.5 591C503.5 602.874 493.874 612.5 482 612.5C470.126 612.5 460.5 602.874 460.5 591C460.5 579.126 470.126 569.5 482 569.5Z" stroke="#2C2C2C" stroke-linecap="round"/>
<g id="Monitor_14">
<path id="Icon_14" d="M478.667 598.5H485.333M482 595.167V598.5M475.333 583.5H488.667C489.587 583.5 490.333 584.246 490.333 585.167V593.5C490.333 594.42 489.587 595.167 488.667 595.167H475.333C474.413 595.167 473.667 594.42 473.667 593.5V585.167C473.667 584.246 474.413 583.5 475.333 583.5Z" stroke="#F5F5F5" stroke-width="2" stroke-linecap="round" stroke-linejoin="round"/>
</g>
</g>
</g>
<g id="workspace_45">
<g id="desk_3_3">
<path d="M557 569.5C568.874 569.5 578.5 579.126 578.5 591C578.5 602.874 568.874 612.5 557 612.5C545.126 612.5 535.5 602.874 535.5 591C535.5 579.126 545.126 569.5 557 569.5Z" fill="#2C2C2C"/>
<path d="M557 569.5C568.874 569.5 578.5 579.126 578.5 591C578.5 602.874 568.874 612.5 557 612.5C545.126 612.5 535.5 602.874 535.5 591C535.5 579.126 545.126 569.5 557 569.5Z" stroke="#2C2C2C" stroke-linecap="round"/>
<g id="Monitor_15">
<path id="Icon_15" d="M553.667 598.5H560.333M557 595.167V598.5M550.333 583.5H563.667C564.587 583.5 565.333 584.246 565.333 585.167V593.5C565.333 594.42 564.587 595.167 563.667 595.167H550.333C549.413 595.167 548.667 594.42 548.667 593.5V585.167C548.667 584.246 549.413 583.5 550.333 583.5Z" stroke="#F5F5F5" stroke-width="2" stroke-linecap="round" stroke-linejoin="round"/>
</g>
</g>
</g>
<g id="workspace_46">
<g id="desk_4_3">
<path d="M632 569.5C643.874 569.5 653.5 579.126 653.5 591C653.5 602.874 643.874 612.5 632 612.5C620.126 612.5 610.5 602.874 610.5 591C610.5 579.126 620.126 569.5 632 569.5Z" fill="#2C2C2C"/>
<path d="M632 569.5C643.874 569.5 653.5 579.126 653.5 591C653.5 602.874 643.874 612.5 632 612.5C620.126 612.5 610.5 602.874 610.5 591C610.5 579.126 620.126 569.5 632 569.5Z" stroke="#2C2C2C" stroke-linecap="round"/>
<g id="Monitor_16">
<path id="Icon_16" d="M628.667 598.5H635.333M632 595.167V598.5M625.333 583.5H638.667C639.587 583.5 640.333 584.246 640.333 585.167V593.5C640.333 594.42 639.587 595.167 638.667 595.167H625.333C624.413 595.167 623.667 594.42 623.667 593.5V585.167C623.667 584.246 624.413 583.5 625.333 583.5Z" stroke="#F5F5F5" stroke-width="2" stroke-linecap="round" stroke-linejoin="round"/>
</g>
</g>
</g>
<g id="workspace_47">
<g id="desk_5_3">
<path d="M707 569.5C718.874 569.5 728.5 579.126 728.5 591C728.5 602.874 718.874 612.5 707 612.5C695.126 612.5 685.5 602.874 685.5 591C685.5 579.126 695.126 569.5 707 569.5Z" fill="#2C2C2C"/>
<path d="M707 569.5C718.874 569.5 728.5 579.126 728.5 591C728.5 602.874 718.874 612.5 707 612.5C695.126 612.5 685.5 602.874 685.5 591C685.5 579.126 695.126 569.5 707 569.5Z" stroke="#2C2C2C" stroke-linecap="round"/>
<g id="Monitor_17">
<path id="Icon_17" d="M703.667 598.5H710.333M707 595.167V598.5M700.333 583.5H713.667C714.587 583.5 715.333 584.246 715.333 585.167V593.5C715.333 594.42 714.587 595.167 713.667 595.167H700.333C699.413 595.167 698.667 594.42 698.667 593.5V585.167C698.667 584.246 699.413 583.5 700.333 583.5Z" stroke="#F5F5F5" stroke-width="2" stroke-linecap="round" stroke-linejoin="round"/>
</g>
</g>
</g>
<g id="workspace_48">
<g id="desk_6_3">
<path d="M782 569.5C793.874 569.5 803.5 579.126 803.5 591C803.5 602.874 793.874 612.5 782 612.5C770.126 612.5 760.5 602.874 760.5 591C760.5 579.126 770.126 569.5 782 569.5Z" fill="#2C2C2C"/>
<path d="M782 569.5C793.874 569.5 803.5 579.126 803.5 591C803.5 602.874 793.874 612.5 782 612.5C770.126 612.5 760.5 602.874 760.5 591C760.5 579.126 770.126 569.5 782 569.5Z" stroke="#2C2C2C" stroke-linecap="round"/>
<g id="Monitor_18">
<path id="Icon_18" d="M778.667 598.5H785.333M782 595.167V598.5M775.333 583.5H788.667C789.587 583.5 790.333 584.246 790.333 585.167V593.5C790.333 594.42 789.587 595.167 788.667 595.167H775.333C774.413 595.167 773.667 594.42 773.667 593.5V585.167C773.667 584.246 774.413 583.5 775.333 583.5Z" stroke="#F5F5F5" stroke-width="2" stroke-linecap="round" stroke-linejoin="round"/>
</g>
</g>
</g>
<g id="workspace_37">
<g id="desk_1_4">
<path d="M407 509.5C418.874 509.5 428.5 519.126 428.5 531C428.5 542.874 418.874 552.5 407 552.5C395.126 552.5 385.5 542.874 385.5 531C385.5 519.126 395.126 509.5 407 509.5Z" fill="#2C2C2C"/>
<path d="M407 509.5C418.874 509.5 428.5 519.126 428.5 531C428.5 542.874 418.874 552.5 407 552.5C395.126 552.5 385.5 542.874 385.5 531C385.5 519.126 395.126 509.5 407 509.5Z" stroke="#2C2C2C" stroke-linecap="round"/>
<g id="Monitor_19">
<path id="Icon_19" d="M403.667 538.5H410.333M407 535.167V538.5M400.333 523.5H413.667C414.587 523.5 415.333 524.246 415.333 525.167V533.5C415.333 534.42 414.587 535.167 413.667 535.167H400.333C399.413 535.167 398.667 534.42 398.667 533.5V525.167C398.667 524.246 399.413 523.5 400.333 523.5Z" stroke="#F5F5F5" stroke-width="2" stroke-linecap="round" stroke-linejoin="round"/>
</g>
</g>
</g>
<g id="workspace_38">
<g id="desk_2_4">
<path d="M482 509.5C493.874 509.5 503.5 519.126 503.5 531C503.5 542.874 493.874 552.5 482 552.5C470.126 552.5 460.5 542.874 460.5 531C460.5 519.126 470.126 509.5 482 509.5Z" fill="#2C2C2C"/>
<path d="M482 509.5C493.874 509.5 503.5 519.126 503.5 531C503.5 542.874 493.874 552.5 482 552.5C470.126 552.5 460.5 542.874 460.5 531C460.5 519.126 470.126 509.5 482 509.5Z" stroke="#2C2C2C" stroke-linecap="round"/>
<g id="Monitor_20">
<path id="Icon_20" d="M478.667 538.5H485.333M482 535.167V538.5M475.333 523.5H488.667C489.587 523.5 490.333 524.246 490.333 525.167V533.5C490.333 534.42 489.587 535.167 488.667 535.167H475.333C474.413 535.167 473.667 534.42 473.667 533.5V525.167C473.667 524.246 474.413 523.5 475.333 523.5Z" stroke="#F5F5F5" stroke-width="2" stroke-linecap="round" stroke-linejoin="round"/>
</g>
</g>
</g>
<g id="workspace_39">
<g id="desk_3_4">
<path d="M557 509.5C568.874 509.5 578.5 519.126 578.5 531C578.5 542.874 568.874 552.5 557 552.5C545.126 552.5 535.5 542.874 535.5 531C535.5 519.126 545.126 509.5 557 509.5Z" fill="#2C2C2C"/>
<path d="M557 509.5C568.874 509.5 578.5 519.126 578.5 531C578.5 542.874 568.874 552.5 557 552.5C545.126 552.5 535.5 542.874 535.5 531C535.5 519.126 545.126 509.5 557 509.5Z" stroke="#2C2C2C" stroke-linecap="round"/>
<g id="Monitor_21">
<path id="Icon_21" d="M553.667 538.5H560.333M557 535.167V538.5M550.333 523.5H563.667C564.587 523.5 565.333 524.246 565.333 525.167V533.5C565.333 534.42 564.587 535.167 563.667 535.167H550.333C549.413 535.167 548.667 534.42 548.667 533.5V525.167C548.667 524.246 549.413 523.5 550.333 523.5Z" stroke="#F5F5F5" stroke-width="2" stroke-linecap="round" stroke-linejoin="round"/>
</g>
</g>
</g>
<g id="workspace_40">
<g id="desk_4_4">
<path d="M632 509.5C643.874 509.5 653.5 519.126 653.5 531C653.5 542.874 643.874 552.5 632 552.5C620.126 552.5 610.5 542.874 610.5 531C610.5 519.126 620.126 509.5 632 509.5Z" fill="#2C2C2C"/>
<path d="M632 509.5C643.874 509.5 653.5 519.126 653.5 531C653.5 542.874 643.874 552.5 632 552.5C620.126 552.5 610.5 542.874 610.5 531C610.5 519.126 620.126 509.5 632 509.5Z" stroke="#2C2C2C" stroke-linecap="round"/>
<g id="Monitor_22">
<path id="Icon_22" d="M628.667 538.5H635.333M632 535.167V538.5M625.333 523.5H638.667C639.587 523.5 640.333 524.246 640.333 525.167V533.5C640.333 534.42 639.587 535.167 638.667 535.167H625.333C624.413 535.167 623.667 534.42 623.667 533.5V525.167C623.667 524.246 624.413 523.5 625.333 523.5Z" stroke="#F5F5F5" stroke-width="2" stroke-linecap="round" stroke-linejoin="round"/>
</g>
</g>
</g>
<g id="workspace_41">
<g id="desk_5_4">
<path d="M707 509.5C718.874 509.5 728.5 519.126 728.5 531C728.5 542.874 718.874 552.5 707 552.5C695.126 552.5 685.5 542.874 685.5 531C685.5 519.126 695.126 509.5 707 509.5Z" fill="#2C2C2C"/>
<path d="M707 509.5C718.874 509.5 728.5 519.126 728.5 531C728.5 542.874 718.874 552.5 707 552.5C695.126 552.5 685.5 542.874 685.5 531C685.5 519.126 695.126 509.5 707 509.5Z" stroke="#2C2C2C" stroke-linecap="round"/>
<g id="Monitor_23">
<path id="Icon_23" d="M703.667 538.5H710.333M707 535.167V538.5M700.333 523.5H713.667C714.587 523.5 715.333 524.246 715.333 525.167V533.5C715.333 534.42 714.587 535.167 713.667 535.167H700.333C699.413 535.167 698.667 534.42 698.667 533.5V525.167C698.667 524.246 699.413 523.5 700.333 523.5Z" stroke="#F5F5F5" stroke-width="2" stroke-linecap="round" stroke-linejoin="round"/>
</g>
</g>
</g>
<g id="workspace_42">
<g id="desk_6_4">
<path d="M782 509.5C793.874 509.5 803.5 519.126 803.5 531C803.5 542.874 793.874 552.5 782 552.5C770.126 552.5 760.5 542.874 760.5 531C760.5 519.126 770.126 509.5 782 509.5Z" fill="#2C2C2C"/>
<path d="M782 509.5C793.874 509.5 803.5 519.126 803.5 531C803.5 542.874 793.874 552.5 782 552.5C770.126 552.5 760.5 542.874 760.5 531C760.5 519.126 770.126 509.5 782 509.5Z" stroke="#2C2C2C" stroke-linecap="round"/>
<g id="Monitor_24">
<path id="Icon_24" d="M778.667 538.5H785.333M782 535.167V538.5M775.333 523.5H788.667C789.587 523.5 790.333 524.246 790.333 525.167V533.5C790.333 534.42 789.587 535.167 788.667 535.167H775.333C774.413 535.167 773.667 534.42 773.667 533.5V525.167C773.667 524.246 774.413 523.5 775.333 523.5Z" stroke="#F5F5F5" stroke-width="2" stroke-linecap="round" stroke-linejoin="round"/>
</g>
</g>
</g>
<g id="workspace_31">
<g id="desk_1_5">
<path d="M407 235.5C418.874 235.5 428.5 245.126 428.5 257C428.5 268.874 418.874 278.5 407 278.5C395.126 278.5 385.5 268.874 385.5 257C385.5 245.126 395.126 235.5 407 235.5Z" fill="#2C2C2C"/>
<path d="M407 235.5C418.874 235.5 428.5 245.126 428.5 257C428.5 268.874 418.874 278.5 407 278.5C395.126 278.5 385.5 268.874 385.5 257C385.5 245.126 395.126 235.5 407 235.5Z" stroke="#2C2C2C" stroke-linecap="round"/>
<g id="Monitor_25">
<path id="Icon_25" d="M403.667 264.5H410.333M407 261.167V264.5M400.333 249.5H413.667C414.587 249.5 415.333 250.246 415.333 251.167V259.5C415.333 260.42 414.587 261.167 413.667 261.167H400.333C399.413 261.167 398.667 260.42 398.667 259.5V251.167C398.667 250.246 399.413 249.5 400.333 249.5Z" stroke="#F5F5F5" stroke-width="2" stroke-linecap="round" stroke-linejoin="round"/>
</g>
</g>
</g>
<g id="workspace_32">
<g id="desk_2_5">
<path d="M482 235.5C493.874 235.5 503.5 245.126 503.5 257C503.5 268.874 493.874 278.5 482 278.5C470.126 278.5 460.5 268.874 460.5 257C460.5 245.126 470.126 235.5 482 235.5Z" fill="#2C2C2C"/>
<path d="M482 235.5C493.874 235.5 503.5 245.126 503.5 257C503.5 268.874 493.874 278.5 482 278.5C470.126 278.5 460.5 268.874 460.5 257C460.5 245.126 470.126 235.5 482 235.5Z" stroke="#2C2C2C" stroke-linecap="round"/>
<g id="Monitor_26">
<path id="Icon_26" d="M478.667 264.5H485.333M482 261.167V264.5M475.333 249.5H488.667C489.587 249.5 490.333 250.246 490.333 251.167V259.5C490.333 260.42 489.587 261.167 488.667 261.167H475.333C474.413 261.167 473.667 260.42 473.667 259.5V251.167C473.667 250.246 474.413 249.5 475.333 249.5Z" stroke="#F5F5F5" stroke-width="2" stroke-linecap="round" stroke-linejoin="round"/>
</g>
</g>
</g>
<g id="workspace_33">
<g id="desk_3_5">
<path d="M557 235.5C568.874 235.5 578.5 245.126 578.5 257C578.5 268.874 568.874 278.5 557 278.5C545.126 278.5 535.5 268.874 535.5 257C535.5 245.126 545.126 235.5 557 235.5Z" fill="#2C2C2C"/>
<path d="M557 235.5C568.874 235.5 578.5 245.126 578.5 257C578.5 268.874 568.874 278.5 557 278.5C545.126 278.5 535.5 268.874 535.5 257C535.5 245.126 545.126 235.5 557 235.5Z" stroke="#2C2C2C" stroke-linecap="round"/>
<g id="Monitor_27">
<path id="Icon_27" d="M553.667 264.5H560.333M557 261.167V264.5M550.333 249.5H563.667C564.587 249.5 565.333 250.246 565.333 251.167V259.5C565.333 260.42 564.587 261.167 563.667 261.167H550.333C549.413 261.167 548.667 260.42 548.667 259.5V251.167C548.667 250.246 549.413 249.5 550.333 249.5Z" stroke="#F5F5F5" stroke-width="2" stroke-linecap="round" stroke-linejoin="round"/>
</g>
</g>
</g>
<g id="workspace_34">
<g id="desk_4_5">
<path d="M632 235.5C643.874 235.5 653.5 245.126 653.5 257C653.5 268.874 643.874 278.5 632 278.5C620.126 278.5 610.5 268.874 610.5 257C610.5 245.126 620.126 235.5 632 235.5Z" fill="#2C2C2C"/>
<path d="M632 235.5C643.874 235.5 653.5 245.126 653.5 257C653.5 268.874 643.874 278.5 632 278.5C620.126 278.5 610.5 268.874 610.5 257C610.5 245.126 620.126 235.5 632 235.5Z" stroke="#2C2C2C" stroke-linecap="round"/>
<g id="Monitor_28">
<path id="Icon_28" d="M628.667 264.5H635.333M632 261.167V264.5M625.333 249.5H638.667C639.587 249.5 640.333 250.246 640.333 251.167V259.5C640.333 260.42 639.587 261.167 638.667 261.167H625.333C624.413 261.167 623.667 260.42 623.667 259.5V251.167C623.667 250.246 624.413 249.5 625.333 249.5Z" stroke="#F5F5F5" stroke-width="2" stroke-linecap="round" stroke-linejoin="round"/>
</g>
</g>
</g>
<g id="workspace_35">
<g id="desk_5_5">
<path d="M707 235.5C718.874 235.5 728.5 245.126 728.5 257C728.5 268.874 718.874 278.5 707 278.5C695.126 278.5 685.5 268.874 685.5 257C685.5 245.126 695.126 235.5 707 235.5Z" fill="#2C2C2C"/>
<path d="M707 235.5C718.874 235.5 728.5 245.126 728.5 257C728.5 268.874 718.874 278.5 707 278.5C695.126 278.5 685.5 268.874 685.5 257C685.5 245.126 695.126 235.5 707 235.5Z" stroke="#2C2C2C" stroke-linecap="round"/>
<g id="Monitor_29">
<path id="Icon_29" d="M703.667 264.5H710.333M707 261.167V264.5M700.333 249.5H713.667C714.587 249.5 715.333 250.246 715.333 251.167V259.5C715.333 260.42 714.587 261.167 713.667 261.167H700.333C699.413 261.167 698.667 260.42 698.667 259.5V251.167C698.667 250.246 699.413 249.5 700.333 249.5Z" stroke="#F5F5F5" stroke-width="2" stroke-linecap="round" stroke-linejoin="round"/>
</g>
</g>
</g>
<g id="workspace_36">
<g id="desk_6_5">
<path d="M782 235.5C793.874 235.5 803.5 245.126 803.5 257C803.5 268.874 793.874 278.5 782 278.5C770.126 278.5 760.5 268.874 760.5 257C760.5 245.126 770.126 235.5 782 235.5Z" fill="#2C2C2C"/>
<path d="M782 235.5C793.874 235.5 803.5 245.126 803.5 257C803.5 268.874 793.874 278.5 782 278.5C770.126 278.5 760.5 268.874 760.5 257C760.5 245.126 770.126 235.5 782 235.5Z" stroke="#2C2C2C" stroke-linecap="round"/>
<g id="Monitor_30">
<path id="Icon_30" d="M778.667 264.5H785.333M782 261.167V264.5M775.333 249.5H788.667C789.587 249.5 790.333 250.246 790.333 251.167V259.5C790.333 260.42 789.587 261.167 788.667 261.167H775.333C774.413 261.167 773.667 260.42 773.667 259.5V251.167C773.667 250.246 774.413 249.5 775.333 249.5Z" stroke="#F5F5F5" stroke-width="2" stroke-linecap="round" stroke-linejoin="round"/>
</g>
</g>
</g>
<g id="workspace_25">
<g id="desk_1_6">
<path d="M407 175.5C418.874 175.5 428.5 185.126 428.5 197C428.5 208.874 418.874 218.5 407 218.5C395.126 218.5 385.5 208.874 385.5 197C385.5 185.126 395.126 175.5 407 175.5Z" fill="#2C2C2C"/>
<path d="M407 175.5C418.874 175.5 428.5 185.126 428.5 197C428.5 208.874 418.874 218.5 407 218.5C395.126 218.5 385.5 208.874 385.5 197C385.5 185.126 395.126 175.5 407 175.5Z" stroke="#2C2C2C" stroke-linecap="round"/>
<g id="Monitor_31">
<path id="Icon_31" d="M403.667 204.5H410.333M407 201.167V204.5M400.333 189.5H413.667C414.587 189.5 415.333 190.246 415.333 191.167V199.5C415.333 200.42 414.587 201.167 413.667 201.167H400.333C399.413 201.167 398.667 200.42 398.667 199.5V191.167C398.667 190.246 399.413 189.5 400.333 189.5Z" stroke="#F5F5F5" stroke-width="2" stroke-linecap="round" stroke-linejoin="round"/>
</g>
</g>
</g>
<g id="workspace_26">
<g id="desk_2_6">
<path d="M482 175.5C493.874 175.5 503.5 185.126 503.5 197C503.5 208.874 493.874 218.5 482 218.5C470.126 218.5 460.5 208.874 460.5 197C460.5 185.126 470.126 175.5 482 175.5Z" fill="#2C2C2C"/>
<path d="M482 175.5C493.874 175.5 503.5 185.126 503.5 197C503.5 208.874 493.874 218.5 482 218.5C470.126 218.5 460.5 208.874 460.5 197C460.5 185.126 470.126 175.5 482 175.5Z" stroke="#2C2C2C" stroke-linecap="round"/>
<g id="Monitor_32">
<path id="Icon_32" d="M478.667 204.5H485.333M482 201.167V204.5M475.333 189.5H488.667C489.587 189.5 490.333 190.246 490.333 191.167V199.5C490.333 200.42 489.587 201.167 488.667 201.167H475.333C474.413 201.167 473.667 200.42 473.667 199.5V191.167C473.667 190.246 474.413 189.5 475.333 189.5Z" stroke="#F5F5F5" stroke-width="2" stroke-linecap="round" stroke-linejoin="round"/>
</g>
</g>
</g>
<g id="workspace_27">
<g id="desk_3_6">
<path d="M557 175.5C568.874 175.5 578.5 185.126 578.5 197C578.5 208.874 568.874 218.5 557 218.5C545.126 218.5 535.5 208.874 535.5 197C535.5 185.126 545.126 175.5 557 175.5Z" fill="#2C2C2C"/>
<path d="M557 175.5C568.874 175.5 578.5 185.126 578.5 197C578.5 208.874 568.874 218.5 557 218.5C545.126 218.5 535.5 208.874 535.5 197C535.5 185.126 545.126 175.5 557 175.5Z" stroke="#2C2C2C" stroke-linecap="round"/>
<g id="Monitor_33">
<path id="Icon_33" d="M553.667 204.5H560.333M557 201.167V204.5M550.333 189.5H563.667C564.587 189.5 565.333 190.246 565.333 191.167V199.5C565.333 200.42 564.587 201.167 563.667 201.167H550.333C549.413 201.167 548.667 200.42 548.667 199.5V191.167C548.667 190.246 549.413 189.5 550.333 189.5Z" stroke="#F5F5F5" stroke-width="2" stroke-linecap="round" stroke-linejoin="round"/>
</g>
</g>
</g>
<g id="workspace_28">
<g id="desk_4_6">
<path d="M632 175.5C643.874 175.5 653.5 185.126 653.5 197C653.5 208.874 643.874 218.5 632 218.5C620.126 218.5 610.5 208.874 610.5 197C610.5 185.126 620.126 175.5 632 175.5Z" fill="#2C2C2C"/>
<path d="M632 175.5C643.874 175.5 653.5 185.126 653.5 197C653.5 208.874 643.874 218.5 632 218.5C620.126 218.5 610.5 208.874 610.5 197C610.5 185.126 620.126 175.5 632 175.5Z" stroke="#2C2C2C" stroke-linecap="round"/>
<g id="Monitor_34">
<path id="Icon_34" d="M628.667 204.5H635.333M632 201.167V204.5M625.333 189.5H638.667C639.587 189.5 640.333 190.246 640.333 191.167V199.5C640.333 200.42 639.587 201.167 638.667 201.167H625.333C624.413 201.167 623.667 200.42 623.667 199.5V191.167C623.667 190.246 624.413 189.5 625.333 189.5Z" stroke="#F5F5F5" stroke-width="2" stroke-linecap="round" stroke-linejoin="round"/>
</g>
</g>
</g>
<g id="workspace_29">
<g id="desk_5_6">
<path d="M707 175.5C718.874 175.5 728.5 185.126 728.5 197C728.5 208.874 718.874 218.5 707 218.5C695.126 218.5 685.5 208.874 685.5 197C685.5 185.126 695.126 175.5 707 175.5Z" fill="#2C2C2C"/>
<path d="M707 175.5C718.874 175.5 728.5 185.126 728.5 197C728.5 208.874 718.874 218.5 707 218.5C695.126 218.5 685.5 208.874 685.5 197C685.5 185.126 695.126 175.5 707 175.5Z" stroke="#2C2C2C" stroke-linecap="round"/>
<g id="Monitor_35">
<path id="Icon_35" d="M703.667 204.5H710.333M707 201.167V204.5M700.333 189.5H713.667C714.587 189.5 715.333 190.246 715.333 191.167V199.5C715.333 200.42 714.587 201.167 713.667 201.167H700.333C699.413 201.167 698.667 200.42 698.667 199.5V191.167C698.667 190.246 699.413 189.5 700.333 189.5Z" stroke="#F5F5F5" stroke-width="2" stroke-linecap="round" stroke-linejoin="round"/>
</g>
</g>
</g>
<g id="workspace_30">
<g id="desk_6_6">
<path d="M782 175.5C793.874 175.5 803.5 185.126 803.5 197C803.5 208.874 793.874 218.5 782 218.5C770.126 218.5 760.5 208.874 760.5 197C760.5 185.126 770.126 175.5 782 175.5Z" fill="#2C2C2C"/>
<path d="M782 175.5C793.874 175.5 803.5 185.126 803.5 197C803.5 208.874 793.874 218.5 782 218.5C770.126 218.5 760.5 208.874 760.5 197C760.5 185.126 770.126 175.5 782 175.5Z" stroke="#2C2C2C" stroke-linecap="round"/>
<g id="Monitor_36">
<path id="Icon_36" d="M778.667 204.5H785.333M782 201.167V204.5M775.333 189.5H788.667C789.587 189.5 790.333 190.246 790.333 191.167V199.5C790.333 200.42 789.587 201.167 788.667 201.167H775.333C774.413 201.167 773.667 200.42 773.667 199.5V191.167C773.667 190.246 774.413 189.5 775.333 189.5Z" stroke="#F5F5F5" stroke-width="2" stroke-linecap="round" stroke-linejoin="round"/>
</g>
</g>
</g>
<g id="workspace_19">
<g id="desk_1_7">
<path d="M407 115.5C418.874 115.5 428.5 125.126 428.5 137C428.5 148.874 418.874 158.5 407 158.5C395.126 158.5 385.5 148.874 385.5 137C385.5 125.126 395.126 115.5 407 115.5Z" fill="#2C2C2C"/>
<path d="M407 115.5C418.874 115.5 428.5 125.126 428.5 137C428.5 148.874 418.874 158.5 407 158.5C395.126 158.5 385.5 148.874 385.5 137C385.5 125.126 395.126 115.5 407 115.5Z" stroke="#2C2C2C" stroke-linecap="round"/>
<g id="Monitor_37">
<path id="Icon_37" d="M403.667 144.5H410.333M407 141.167V144.5M400.333 129.5H413.667C414.587 129.5 415.333 130.246 415.333 131.167V139.5C415.333 140.42 414.587 141.167 413.667 141.167H400.333C399.413 141.167 398.667 140.42 398.667 139.5V131.167C398.667 130.246 399.413 129.5 400.333 129.5Z" stroke="#F5F5F5" stroke-width="2" stroke-linecap="round" stroke-linejoin="round"/>
</g>
</g>
</g>
<g id="workspace_20">
<g id="desk_2_7">
<path d="M482 115.5C493.874 115.5 503.5 125.126 503.5 137C503.5 148.874 493.874 158.5 482 158.5C470.126 158.5 460.5 148.874 460.5 137C460.5 125.126 470.126 115.5 482 115.5Z" fill="#2C2C2C"/>
<path d="M482 115.5C493.874 115.5 503.5 125.126 503.5 137C503.5 148.874 493.874 158.5 482 158.5C470.126 158.5 460.5 148.874 460.5 137C460.5 125.126 470.126 115.5 482 115.5Z" stroke="#2C2C2C" stroke-linecap="round"/>
<g id="Monitor_38">
<path id="Icon_38" d="M478.667 144.5H485.333M482 141.167V144.5M475.333 129.5H488.667C489.587 129.5 490.333 130.246 490.333 131.167V139.5C490.333 140.42 489.587 141.167 488.667 141.167H475.333C474.413 141.167 473.667 140.42 473.667 139.5V131.167C473.667 130.246 474.413 129.5 475.333 129.5Z" stroke="#F5F5F5" stroke-width="2" stroke-linecap="round" stroke-linejoin="round"/>
</g>
</g>
</g>
<g id="workspace_21">
<g id="desk_3_7">
<path d="M557 115.5C568.874 115.5 578.5 125.126 578.5 137C578.5 148.874 568.874 158.5 557 158.5C545.126 158.5 535.5 148.874 535.5 137C535.5 125.126 545.126 115.5 557 115.5Z" fill="#2C2C2C"/>
<path d="M557 115.5C568.874 115.5 578.5 125.126 578.5 137C578.5 148.874 568.874 158.5 557 158.5C545.126 158.5 535.5 148.874 535.5 137C535.5 125.126 545.126 115.5 557 115.5Z" stroke="#2C2C2C" stroke-linecap="round"/>
<g id="Monitor_39">
<path id="Icon_39" d="M553.667 144.5H560.333M557 141.167V144.5M550.333 129.5H563.667C564.587 129.5 565.333 130.246 565.333 131.167V139.5C565.333 140.42 564.587 141.167 563.667 141.167H550.333C549.413 141.167 548.667 140.42 548.667 139.5V131.167C548.667 130.246 549.413 129.5 550.333 129.5Z" stroke="#F5F5F5" stroke-width="2" stroke-linecap="round" stroke-linejoin="round"/>
</g>
</g>
</g>
<g id="workspace_22">
<g id="desk_4_7">
<path d="M632 115.5C643.874 115.5 653.5 125.126 653.5 137C653.5 148.874 643.874 158.5 632 158.5C620.126 158.5 610.5 148.874 610.5 137C610.5 125.126 620.126 115.5 632 115.5Z" fill="#2C2C2C"/>
<path d="M632 115.5C643.874 115.5 653.5 125.126 653.5 137C653.5 148.874 643.874 158.5 632 158.5C620.126 158.5 610.5 148.874 610.5 137C610.5 125.126 620.126 115.5 632 115.5Z" stroke="#2C2C2C" stroke-linecap="round"/>
<g id="Monitor_40">
<path id="Icon_40" d="M628.667 144.5H635.333M632 141.167V144.5M625.333 129.5H638.667C639.587 129.5 640.333 130.246 640.333 131.167V139.5C640.333 140.42 639.587 141.167 638.667 141.167H625.333C624.413 141.167 623.667 140.42 623.667 139.5V131.167C623.667 130.246 624.413 129.5 625.333 129.5Z" stroke="#F5F5F5" stroke-width="2" stroke-linecap="round" stroke-linejoin="round"/>
</g>
</g>
</g>
<g id="workspace_23">
<g id="desk_5_7">
<path d="M707 115.5C718.874 115.5 728.5 125.126 728.5 137C728.5 148.874 718.874 158.5 707 158.5C695.126 158.5 685.5 148.874 685.5 137C685.5 125.126 695.126 115.5 707 115.5Z" fill="#2C2C2C"/>
<path d="M707 115.5C718.874 115.5 728.5 125.126 728.5 137C728.5 148.874 718.874 158.5 707 158.5C695.126 158.5 685.5 148.874 685.5 137C685.5 125.126 695.126 115.5 707 115.5Z" stroke="#2C2C2C" stroke-linecap="round"/>
<g id="Monitor_41">
<path id="Icon_41" d="M703.667 144.5H710.333M707 141.167V144.5M700.333 129.5H713.667C714.587 129.5 715.333 130.246 715.333 131.167V139.5C715.333 140.42 714.587 141.167 713.667 141.167H700.333C699.413 141.167 698.667 140.42 698.667 139.5V131.167C698.667 130.246 699.413 129.5 700.333 129.5Z" stroke="#F5F5F5" stroke-width="2" stroke-linecap="round" stroke-linejoin="round"/>
</g>
</g>
</g>
<g id="workspace_24">
<g id="desk_6_7">
<path d="M782 115.5C793.874 115.5 803.5 125.126 803.5 137C803.5 148.874 793.874 158.5 782 158.5C770.126 158.5 760.5 148.874 760.5 137C760.5 125.126 770.126 115.5 782 115.5Z" fill="#2C2C2C"/>
<path d="M782 115.5C793.874 115.5 803.5 125.126 803.5 137C803.5 148.874 793.874 158.5 782 158.5C770.126 158.5 760.5 148.874 760.5 137C760.5 125.126 770.126 115.5 782 115.5Z" stroke="#2C2C2C" stroke-linecap="round"/>
<g id="Monitor_42">
<path id="Icon_42" d="M778.667 144.5H785.333M782 141.167V144.5M775.333 129.5H788.667C789.587 129.5 790.333 130.246 790.333 131.167V139.5C790.333 140.42 789.587 141.167 788.667 141.167H775.333C774.413 141.167 773.667 140.42 773.667 139.5V131.167C773.667 130.246 774.413 129.5 775.333 129.5Z" stroke="#F5F5F5" stroke-width="2" stroke-linecap="round" stroke-linejoin="round"/>
</g>
</g>
</g>
<g id="workspace_18">
<g id="desk_2_8">
<path d="M782 55.5C793.874 55.5 803.5 65.1259 803.5 77C803.5 88.8741 793.874 98.5 782 98.5C770.126 98.5 760.5 88.8741 760.5 77C760.5 65.1259 770.126 55.5 782 55.5Z" fill="#2C2C2C"/>
<path d="M782 55.5C793.874 55.5 803.5 65.1259 803.5 77C803.5 88.8741 793.874 98.5 782 98.5C770.126 98.5 760.5 88.8741 760.5 77C760.5 65.1259 770.126 55.5 782 55.5Z" stroke="#2C2C2C" stroke-linecap="round"/>
<g id="Monitor_43">
<path id="Icon_43" d="M778.667 84.5H785.333M782 81.1667V84.5M775.333 69.5H788.667C789.587 69.5 790.333 70.2462 790.333 71.1667V79.5C790.333 80.4205 789.587 81.1667 788.667 81.1667H775.333C774.413 81.1667 773.667 80.4205 773.667 79.5V71.1667C773.667 70.2462 774.413 69.5 775.333 69.5Z" stroke="#F5F5F5" stroke-width="2" stroke-linecap="round" stroke-linejoin="round"/>
</g>
</g>
</g>
<g id="workspace_17">
<g id="desk_5_8">
<path d="M707 55.5C718.874 55.5 728.5 65.1259 728.5 77C728.5 88.8741 718.874 98.5 707 98.5C695.126 98.5 685.5 88.8741 685.5 77C685.5 65.1259 695.126 55.5 707 55.5Z" fill="#2C2C2C"/>
<path d="M707 55.5C718.874 55.5 728.5 65.1259 728.5 77C728.5 88.8741 718.874 98.5 707 98.5C695.126 98.5 685.5 88.8741 685.5 77C685.5 65.1259 695.126 55.5 707 55.5Z" stroke="#2C2C2C" stroke-linecap="round"/>
<g id="Monitor_44">
<path id="Icon_44" d="M703.667 84.5H710.333M707 81.1667V84.5M700.333 69.5H713.667C714.587 69.5 715.333 70.2462 715.333 71.1667V79.5C715.333 80.4205 714.587 81.1667 713.667 81.1667H700.333C699.413 81.1667 698.667 80.4205 698.667 79.5V71.1667C698.667 70.2462 699.413 69.5 700.333 69.5Z" stroke="#F5F5F5" stroke-width="2" stroke-linecap="round" stroke-linejoin="round"/>
</g>
</g>
</g>
<g id="workspace_16">
<g id="desk_1_8">
<path d="M632 55.5C643.874 55.5 653.5 65.1259 653.5 77C653.5 88.8741 643.874 98.5 632 98.5C620.126 98.5 610.5 88.8741 610.5 77C610.5 65.1259 620.126 55.5 632 55.5Z" fill="#2C2C2C"/>
<path d="M632 55.5C643.874 55.5 653.5 65.1259 653.5 77C653.5 88.8741 643.874 98.5 632 98.5C620.126 98.5 610.5 88.8741 610.5 77C610.5 65.1259 620.126 55.5 632 55.5Z" stroke="#2C2C2C" stroke-linecap="round"/>
<g id="Monitor_45">
<path id="Icon_45" d="M628.667 84.5H635.333M632 81.1667V84.5M625.333 69.5H638.667C639.587 69.5 640.333 70.2462 640.333 71.1667V79.5C640.333 80.4205 639.587 81.1667 638.667 81.1667H625.333C624.413 81.1667 623.667 80.4205 623.667 79.5V71.1667C623.667 70.2462 624.413 69.5 625.333 69.5Z" stroke="#F5F5F5" stroke-width="2" stroke-linecap="round" stroke-linejoin="round"/>
</g>
</g>
</g>
<g id="workspace_15">
<g id="desk_4_8">
<path d="M557 55.5C568.874 55.5 578.5 65.1259 578.5 77C578.5 88.8741 568.874 98.5 557 98.5C545.126 98.5 535.5 88.8741 535.5 77C535.5 65.1259 545.126 55.5 557 55.5Z" fill="#2C2C2C"/>
<path d="M557 55.5C568.874 55.5 578.5 65.1259 578.5 77C578.5 88.8741 568.874 98.5 557 98.5C545.126 98.5 535.5 88.8741 535.5 77C535.5 65.1259 545.126 55.5 557 55.5Z" stroke="#2C2C2C" stroke-linecap="round"/>
<g id="Monitor_46">
<path id="Icon_46" d="M553.667 84.5H560.333M557 81.1667V84.5M550.333 69.5H563.667C564.587 69.5 565.333 70.2462 565.333 71.1667V79.5C565.333 80.4205 564.587 81.1667 563.667 81.1667H550.333C549.413 81.1667 548.667 80.4205 548.667 79.5V71.1667C548.667 70.2462 549.413 69.5 550.333 69.5Z" stroke="#F5F5F5" stroke-width="2" stroke-linecap="round" stroke-linejoin="round"/>
</g>
</g>
</g>
<g id="workspace_14">
<g id="desk_3_8">
<path d="M482 55.5C493.874 55.5 503.5 65.1259 503.5 77C503.5 88.8741 493.874 98.5 482 98.5C470.126 98.5 460.5 88.8741 460.5 77C460.5 65.1259 470.126 55.5 482 55.5Z" fill="#2C2C2C"/>
<path d="M482 55.5C493.874 55.5 503.5 65.1259 503.5 77C503.5 88.8741 493.874 98.5 482 98.5C470.126 98.5 460.5 88.8741 460.5 77C460.5 65.1259 470.126 55.5 482 55.5Z" stroke="#2C2C2C" stroke-linecap="round"/>
<g id="Monitor_47">
<path id="Icon_47" d="M478.667 84.5H485.333M482 81.1667V84.5M475.333 69.5H488.667C489.587 69.5 490.333 70.2462 490.333 71.1667V79.5C490.333 80.4205 489.587 81.1667 488.667 81.1667H475.333C474.413 81.1667 473.667 80.4205 473.667 79.5V71.1667C473.667 70.2462 474.413 69.5 475.333 69.5Z" stroke="#F5F5F5" stroke-width="2" stroke-linecap="round" stroke-linejoin="round"/>
</g>
</g>
</g>
<g id="workspace_13">
<g id="desk_6_8">
<path d="M407 55.5C418.874 55.5 428.5 65.1259 428.5 77C428.5 88.8741 418.874 98.5 407 98.5C395.126 98.5 385.5 88.8741 385.5 77C385.5 65.1259 395.126 55.5 407 55.5Z" fill="#2C2C2C"/>
<path d="M407 55.5C418.874 55.5 428.5 65.1259 428.5 77C428.5 88.8741 418.874 98.5 407 98.5C395.126 98.5 385.5 88.8741 385.5 77C385.5 65.1259 395.126 55.5 407 55.5Z" stroke="#2C2C2C" stroke-linecap="round"/>
<g id="Monitor_48">
<path id="Icon_48" d="M403.667 84.5H410.333M407 81.1667V84.5M400.333 69.5H413.667C414.587 69.5 415.333 70.2462 415.333 71.1667V79.5C415.333 80.4205 414.587 81.1667 413.667 81.1667H400.333C399.413 81.1667 398.667 80.4205 398.667 79.5V71.1667C398.667 70.2462 399.413 69.5 400.333 69.5Z" stroke="#F5F5F5" stroke-width="2" stroke-linecap="round" stroke-linejoin="round"/>
</g>
</g>
</g>
<g id="workspace_12">
<g id="desk_6_9">
<path d="M204 562.5C215.874 562.5 225.5 572.126 225.5 584C225.5 595.874 215.874 605.5 204 605.5C192.126 605.5 182.5 595.874 182.5 584C182.5 572.126 192.126 562.5 204 562.5Z" fill="#2C2C2C"/>
<path d="M204 562.5C215.874 562.5 225.5 572.126 225.5 584C225.5 595.874 215.874 605.5 204 605.5C192.126 605.5 182.5 595.874 182.5 584C182.5 572.126 192.126 562.5 204 562.5Z" stroke="#2C2C2C" stroke-linecap="round"/>
<g id="Monitor_49">
<path id="Icon_49" d="M200.667 591.5H207.333M204 588.167V591.5M197.333 576.5H210.667C211.587 576.5 212.333 577.246 212.333 578.167V586.5C212.333 587.42 211.587 588.167 210.667 588.167H197.333C196.413 588.167 195.667 587.42 195.667 586.5V578.167C195.667 577.246 196.413 576.5 197.333 576.5Z" stroke="#F5F5F5" stroke-width="2" stroke-linecap="round" stroke-linejoin="round"/>
</g>
</g>
</g>
<g id="workspace_11">
<g id="desk_5_9">
<path d="M204 487.5C215.874 487.5 225.5 497.126 225.5 509C225.5 520.874 215.874 530.5 204 530.5C192.126 530.5 182.5 520.874 182.5 509C182.5 497.126 192.126 487.5 204 487.5Z" fill="#2C2C2C"/>
<path d="M204 487.5C215.874 487.5 225.5 497.126 225.5 509C225.5 520.874 215.874 530.5 204 530.5C192.126 530.5 182.5 520.874 182.5 509C182.5 497.126 192.126 487.5 204 487.5Z" stroke="#2C2C2C" stroke-linecap="round"/>
<g id="Monitor_50">
<path id="Icon_50" d="M200.667 516.5H207.333M204 513.167V516.5M197.333 501.5H210.667C211.587 501.5 212.333 502.246 212.333 503.167V511.5C212.333 512.42 211.587 513.167 210.667 513.167H197.333C196.413 513.167 195.667 512.42 195.667 511.5V503.167C195.667 502.246 196.413 501.5 197.333 501.5Z" stroke="#F5F5F5" stroke-width="2" stroke-linecap="round" stroke-linejoin="round"/>
</g>
</g>
</g>
<g id="workspace_10">
<g id="desk_4_9">
<path d="M204 412.5C215.874 412.5 225.5 422.126 225.5 434C225.5 445.874 215.874 455.5 204 455.5C192.126 455.5 182.5 445.874 182.5 434C182.5 422.126 192.126 412.5 204 412.5Z" fill="#2C2C2C"/>
<path d="M204 412.5C215.874 412.5 225.5 422.126 225.5 434C225.5 445.874 215.874 455.5 204 455.5C192.126 455.5 182.5 445.874 182.5 434C182.5 422.126 192.126 412.5 204 412.5Z" stroke="#2C2C2C" stroke-linecap="round"/>
<g id="Monitor_51">
<path id="Icon_51" d="M200.667 441.5H207.333M204 438.167V441.5M197.333 426.5H210.667C211.587 426.5 212.333 427.246 212.333 428.167V436.5C212.333 437.42 211.587 438.167 210.667 438.167H197.333C196.413 438.167 195.667 437.42 195.667 436.5V428.167C195.667 427.246 196.413 426.5 197.333 426.5Z" stroke="#F5F5F5" stroke-width="2" stroke-linecap="round" stroke-linejoin="round"/>
</g>
</g>
</g>
<g id="workspace_9">
<g id="desk_3_9">
<path d="M204 337.5C215.874 337.5 225.5 347.126 225.5 359C225.5 370.874 215.874 380.5 204 380.5C192.126 380.5 182.5 370.874 182.5 359C182.5 347.126 192.126 337.5 204 337.5Z" fill="#2C2C2C"/>
<path d="M204 337.5C215.874 337.5 225.5 347.126 225.5 359C225.5 370.874 215.874 380.5 204 380.5C192.126 380.5 182.5 370.874 182.5 359C182.5 347.126 192.126 337.5 204 337.5Z" stroke="#2C2C2C" stroke-linecap="round"/>
<g id="Monitor_52">
<path id="Icon_52" d="M200.667 366.5H207.333M204 363.167V366.5M197.333 351.5H210.667C211.587 351.5 212.333 352.246 212.333 353.167V361.5C212.333 362.42 211.587 363.167 210.667 363.167H197.333C196.413 363.167 195.667 362.42 195.667 361.5V353.167C195.667 352.246 196.413 351.5 197.333 351.5Z" stroke="#F5F5F5" stroke-width="2" stroke-linecap="round" stroke-linejoin="round"/>
</g>
</g>
</g>
<g id="workspace_8">
<g id="desk_2_9">
<path d="M204 262.5C215.874 262.5 225.5 272.126 225.5 284C225.5 295.874 215.874 305.5 204 305.5C192.126 305.5 182.5 295.874 182.5 284C182.5 272.126 192.126 262.5 204 262.5Z" fill="#2C2C2C"/>
<path d="M204 262.5C215.874 262.5 225.5 272.126 225.5 284C225.5 295.874 215.874 305.5 204 305.5C192.126 305.5 182.5 295.874 182.5 284C182.5 272.126 192.126 262.5 204 262.5Z" stroke="#2C2C2C" stroke-linecap="round"/>
<g id="Monitor_53">
<path id="Icon_53" d="M200.667 291.5H207.333M204 288.167V291.5M197.333 276.5H210.667C211.587 276.5 212.333 277.246 212.333 278.167V286.5C212.333 287.42 211.587 288.167 210.667 288.167H197.333C196.413 288.167 195.667 287.42 195.667 286.5V278.167C195.667 277.246 196.413 276.5 197.333 276.5Z" stroke="#F5F5F5" stroke-width="2" stroke-linecap="round" stroke-linejoin="round"/>
</g>
</g>
</g>
<g id="workspace_7">
<g id="desk_1_9">
<path d="M204 187.5C215.874 187.5 225.5 197.126 225.5 209C225.5 220.874 215.874 230.5 204 230.5C192.126 230.5 182.5 220.874 182.5 209C182.5 197.126 192.126 187.5 204 187.5Z" fill="#2C2C2C"/>
<path d="M204 187.5C215.874 187.5 225.5 197.126 225.5 209C225.5 220.874 215.874 230.5 204 230.5C192.126 230.5 182.5 220.874 182.5 209C182.5 197.126 192.126 187.5 204 187.5Z" stroke="#2C2C2C" stroke-linecap="round"/>
<g id="Monitor_54">
<path id="Icon_54" d="M200.667 216.5H207.333M204 213.167V216.5M197.333 201.5H210.667C211.587 201.5 212.333 202.246 212.333 203.167V211.5C212.333 212.42 211.587 213.167 210.667 213.167H197.333C196.413 213.167 195.667 212.42 195.667 211.5V203.167C195.667 202.246 196.413 201.5 197.333 201.5Z" stroke="#F5F5F5" stroke-width="2" stroke-linecap="round" stroke-linejoin="round"/>
</g>
</g>
</g>
<g id="workspace_6">
<g id="desk_6_10">
<path d="M126 562.5C137.874 562.5 147.5 572.126 147.5 584C147.5 595.874 137.874 605.5 126 605.5C114.126 605.5 104.5 595.874 104.5 584C104.5 572.126 114.126 562.5 126 562.5Z" fill="#2C2C2C"/>
<path d="M126 562.5C137.874 562.5 147.5 572.126 147.5 584C147.5 595.874 137.874 605.5 126 605.5C114.126 605.5 104.5 595.874 104.5 584C104.5 572.126 114.126 562.5 126 562.5Z" stroke="#2C2C2C" stroke-linecap="round"/>
<g id="Monitor_55">
<path id="Icon_55" d="M122.667 591.5H129.333M126 588.167V591.5M119.333 576.5H132.667C133.587 576.5 134.333 577.246 134.333 578.167V586.5C134.333 587.42 133.587 588.167 132.667 588.167H119.333C118.413 588.167 117.667 587.42 117.667 586.5V578.167C117.667 577.246 118.413 576.5 119.333 576.5Z" stroke="#F5F5F5" stroke-width="2" stroke-linecap="round" stroke-linejoin="round"/>
</g>
</g>
</g>
<g id="workspace_5">
<g id="desk_5_10">
<path d="M126 487.5C137.874 487.5 147.5 497.126 147.5 509C147.5 520.874 137.874 530.5 126 530.5C114.126 530.5 104.5 520.874 104.5 509C104.5 497.126 114.126 487.5 126 487.5Z" fill="#2C2C2C"/>
<path d="M126 487.5C137.874 487.5 147.5 497.126 147.5 509C147.5 520.874 137.874 530.5 126 530.5C114.126 530.5 104.5 520.874 104.5 509C104.5 497.126 114.126 487.5 126 487.5Z" stroke="#2C2C2C" stroke-linecap="round"/>
<g id="Monitor_56">
<path id="Icon_56" d="M122.667 516.5H129.333M126 513.167V516.5M119.333 501.5H132.667C133.587 501.5 134.333 502.246 134.333 503.167V511.5C134.333 512.42 133.587 513.167 132.667 513.167H119.333C118.413 513.167 117.667 512.42 117.667 511.5V503.167C117.667 502.246 118.413 501.5 119.333 501.5Z" stroke="#F5F5F5" stroke-width="2" stroke-linecap="round" stroke-linejoin="round"/>
</g>
</g>
</g>
<g id="workspace_4">
<g id="desk_4_10">
<path d="M126 412.5C137.874 412.5 147.5 422.126 147.5 434C147.5 445.874 137.874 455.5 126 455.5C114.126 455.5 104.5 445.874 104.5 434C104.5 422.126 114.126 412.5 126 412.5Z" fill="#2C2C2C"/>
<path d="M126 412.5C137.874 412.5 147.5 422.126 147.5 434C147.5 445.874 137.874 455.5 126 455.5C114.126 455.5 104.5 445.874 104.5 434C104.5 422.126 114.126 412.5 126 412.5Z" stroke="#2C2C2C" stroke-linecap="round"/>
<g id="Monitor_57">
<path id="Icon_57" d="M122.667 441.5H129.333M126 438.167V441.5M119.333 426.5H132.667C133.587 426.5 134.333 427.246 134.333 428.167V436.5C134.333 437.42 133.587 438.167 132.667 438.167H119.333C118.413 438.167 117.667 437.42 117.667 436.5V428.167C117.667 427.246 118.413 426.5 119.333 426.5Z" stroke="#F5F5F5" stroke-width="2" stroke-linecap="round" stroke-linejoin="round"/>
</g>
</g>
</g>
<g id="workspace_3">
<g id="desk_3_10">
<path d="M126 337.5C137.874 337.5 147.5 347.126 147.5 359C147.5 370.874 137.874 380.5 126 380.5C114.126 380.5 104.5 370.874 104.5 359C104.5 347.126 114.126 337.5 126 337.5Z" fill="#2C2C2C"/>
<path d="M126 337.5C137.874 337.5 147.5 347.126 147.5 359C147.5 370.874 137.874 380.5 126 380.5C114.126 380.5 104.5 370.874 104.5 359C104.5 347.126 114.126 337.5 126 337.5Z" stroke="#2C2C2C" stroke-linecap="round"/>
<g id="Monitor_58">
<path id="Icon_58" d="M122.667 366.5H129.333M126 363.167V366.5M119.333 351.5H132.667C133.587 351.5 134.333 352.246 134.333 353.167V361.5C134.333 362.42 133.587 363.167 132.667 363.167H119.333C118.413 363.167 117.667 362.42 117.667 361.5V353.167C117.667 352.246 118.413 351.5 119.333 351.5Z" stroke="#F5F5F5" stroke-width="2" stroke-linecap="round" stroke-linejoin="round"/>
</g>
</g>
</g>
<g id="workspace_2">
<g id="desk_2_10">
<path d="M126 262.5C137.874 262.5 147.5 272.126 147.5 284C147.5 295.874 137.874 305.5 126 305.5C114.126 305.5 104.5 295.874 104.5 284C104.5 272.126 114.126 262.5 126 262.5Z" fill="#2C2C2C"/>
<path d="M126 262.5C137.874 262.5 147.5 272.126 147.5 284C147.5 295.874 137.874 305.5 126 305.5C114.126 305.5 104.5 295.874 104.5 284C104.5 272.126 114.126 262.5 126 262.5Z" stroke="#2C2C2C" stroke-linecap="round"/>
<g id="Monitor_59">
<path id="Icon_59" d="M122.667 291.5H129.333M126 288.167V291.5M119.333 276.5H132.667C133.587 276.5 134.333 277.246 134.333 278.167V286.5C134.333 287.42 133.587 288.167 132.667 288.167H119.333C118.413 288.167 117.667 287.42 117.667 286.5V278.167C117.667 277.246 118.413 276.5 119.333 276.5Z" stroke="#F5F5F5" stroke-width="2" stroke-linecap="round" stroke-linejoin="round"/>
</g>
</g>
</g>
<g id="workspace_1">
<g id="desk_1_10">
<path d="M126 187.5C137.874 187.5 147.5 197.126 147.5 209C147.5 220.874 137.874 230.5 126 230.5C114.126 230.5 104.5 220.874 104.5 209C104.5 197.126 114.126 187.5 126 187.5Z" fill="#2C2C2C"/>
<path d="M126 187.5C137.874 187.5 147.5 197.126 147.5 209C147.5 220.874 137.874 230.5 126 230.5C114.126 230.5 104.5 220.874 104.5 209C104.5 197.126 114.126 187.5 126 187.5Z" stroke="#2C2C2C" stroke-linecap="round"/>
<g id="Monitor_60">
<path id="Icon_60" d="M122.667 216.5H129.333M126 213.167V216.5M119.333 201.5H132.667C133.587 201.5 134.333 202.246 134.333 203.167V211.5C134.333 212.42 133.587 213.167 132.667 213.167H119.333C118.413 213.167 117.667 212.42 117.667 211.5V203.167C117.667 202.246 118.413 201.5 119.333 201.5Z" stroke="#F5F5F5" stroke-width="2" stroke-linecap="round" stroke-linejoin="round"/>
</g>
</g>
</g>
</g>
</svg>
