<svg width="791" height="701" viewBox="0 0 791 701" fill="none" xmlns="http://www.w3.org/2000/svg">
<g id="Map01">
<rect id="Background" width="791" height="701" fill="#D9D9D9"/>
<g id="desk_1">
<g id="desk_1_2">
<path d="M122 100.5C133.874 100.5 143.5 110.126 143.5 122C143.5 133.874 133.874 143.5 122 143.5C110.126 143.5 100.5 133.874 100.5 122C100.5 110.126 110.126 100.5 122 100.5Z" fill="#2C2C2C"/>
<path d="M122 100.5C133.874 100.5 143.5 110.126 143.5 122C143.5 133.874 133.874 143.5 122 143.5C110.126 143.5 100.5 133.874 100.5 122C100.5 110.126 110.126 100.5 122 100.5Z" stroke="#2C2C2C" stroke-linecap="round"/>
<g id="Monitor">
<path id="Icon" d="M118.667 129.5H125.333M122 126.167V129.5M115.333 114.5H128.667C129.587 114.5 130.333 115.246 130.333 116.167V124.5C130.333 125.42 129.587 126.167 128.667 126.167H115.333C114.413 126.167 113.667 125.42 113.667 124.5V116.167C113.667 115.246 114.413 114.5 115.333 114.5Z" stroke="#F5F5F5" stroke-width="2" stroke-linecap="round" stroke-linejoin="round"/>
</g>
</g>
</g>
<g id="desk_2">
<g id="desk_2_2">
<path d="M195 100.5C206.874 100.5 216.5 110.126 216.5 122C216.5 133.874 206.874 143.5 195 143.5C183.126 143.5 173.5 133.874 173.5 122C173.5 110.126 183.126 100.5 195 100.5Z" fill="#2C2C2C"/>
<path d="M195 100.5C206.874 100.5 216.5 110.126 216.5 122C216.5 133.874 206.874 143.5 195 143.5C183.126 143.5 173.5 133.874 173.5 122C173.5 110.126 183.126 100.5 195 100.5Z" stroke="#2C2C2C" stroke-linecap="round"/>
<g id="Monitor_2">
<path id="Icon_2" d="M191.667 129.5H198.333M195 126.167V129.5M188.333 114.5H201.667C202.587 114.5 203.333 115.246 203.333 116.167V124.5C203.333 125.42 202.587 126.167 201.667 126.167H188.333C187.413 126.167 186.667 125.42 186.667 124.5V116.167C186.667 115.246 187.413 114.5 188.333 114.5Z" stroke="#F5F5F5" stroke-width="2" stroke-linecap="round" stroke-linejoin="round"/>
</g>
</g>
</g>
<g id="desk_3">
<g id="desk_3_2">
<path d="M268 100.5C279.874 100.5 289.5 110.126 289.5 122C289.5 133.874 279.874 143.5 268 143.5C256.126 143.5 246.5 133.874 246.5 122C246.5 110.126 256.126 100.5 268 100.5Z" fill="#2C2C2C"/>
<path d="M268 100.5C279.874 100.5 289.5 110.126 289.5 122C289.5 133.874 279.874 143.5 268 143.5C256.126 143.5 246.5 133.874 246.5 122C246.5 110.126 256.126 100.5 268 100.5Z" stroke="#2C2C2C" stroke-linecap="round"/>
<g id="Monitor_3">
<path id="Icon_3" d="M264.667 129.5H271.333M268 126.167V129.5M261.333 114.5H274.667C275.587 114.5 276.333 115.246 276.333 116.167V124.5C276.333 125.42 275.587 126.167 274.667 126.167H261.333C260.413 126.167 259.667 125.42 259.667 124.5V116.167C259.667 115.246 260.413 114.5 261.333 114.5Z" stroke="#F5F5F5" stroke-width="2" stroke-linecap="round" stroke-linejoin="round"/>
</g>
</g>
</g>
<g id="desk_4">
<g id="desk_4_2">
<path d="M341 100.5C352.874 100.5 362.5 110.126 362.5 122C362.5 133.874 352.874 143.5 341 143.5C329.126 143.5 319.5 133.874 319.5 122C319.5 110.126 329.126 100.5 341 100.5Z" fill="#2C2C2C"/>
<path d="M341 100.5C352.874 100.5 362.5 110.126 362.5 122C362.5 133.874 352.874 143.5 341 143.5C329.126 143.5 319.5 133.874 319.5 122C319.5 110.126 329.126 100.5 341 100.5Z" stroke="#2C2C2C" stroke-linecap="round"/>
<g id="Monitor_4">
<path id="Icon_4" d="M337.667 129.5H344.333M341 126.167V129.5M334.333 114.5H347.667C348.587 114.5 349.333 115.246 349.333 116.167V124.5C349.333 125.42 348.587 126.167 347.667 126.167H334.333C333.413 126.167 332.667 125.42 332.667 124.5V116.167C332.667 115.246 333.413 114.5 334.333 114.5Z" stroke="#F5F5F5" stroke-width="2" stroke-linecap="round" stroke-linejoin="round"/>
</g>
</g>
</g>
<g id="desk_5">
<g id="desk_5_2">
<path d="M414 100.5C425.874 100.5 435.5 110.126 435.5 122C435.5 133.874 425.874 143.5 414 143.5C402.126 143.5 392.5 133.874 392.5 122C392.5 110.126 402.126 100.5 414 100.5Z" fill="#2C2C2C"/>
<path d="M414 100.5C425.874 100.5 435.5 110.126 435.5 122C435.5 133.874 425.874 143.5 414 143.5C402.126 143.5 392.5 133.874 392.5 122C392.5 110.126 402.126 100.5 414 100.5Z" stroke="#2C2C2C" stroke-linecap="round"/>
<g id="Monitor_5">
<path id="Icon_5" d="M410.667 129.5H417.333M414 126.167V129.5M407.333 114.5H420.667C421.587 114.5 422.333 115.246 422.333 116.167V124.5C422.333 125.42 421.587 126.167 420.667 126.167H407.333C406.413 126.167 405.667 125.42 405.667 124.5V116.167C405.667 115.246 406.413 114.5 407.333 114.5Z" stroke="#F5F5F5" stroke-width="2" stroke-linecap="round" stroke-linejoin="round"/>
</g>
</g>
</g>
<g id="desk_6">
<g id="desk_6_2">
<path d="M487 100.5C498.874 100.5 508.5 110.126 508.5 122C508.5 133.874 498.874 143.5 487 143.5C475.126 143.5 465.5 133.874 465.5 122C465.5 110.126 475.126 100.5 487 100.5Z" fill="#2C2C2C"/>
<path d="M487 100.5C498.874 100.5 508.5 110.126 508.5 122C508.5 133.874 498.874 143.5 487 143.5C475.126 143.5 465.5 133.874 465.5 122C465.5 110.126 475.126 100.5 487 100.5Z" stroke="#2C2C2C" stroke-linecap="round"/>
<g id="Monitor_6">
<path id="Icon_6" d="M483.667 129.5H490.333M487 126.167V129.5M480.333 114.5H493.667C494.587 114.5 495.333 115.246 495.333 116.167V124.5C495.333 125.42 494.587 126.167 493.667 126.167H480.333C479.413 126.167 478.667 125.42 478.667 124.5V116.167C478.667 115.246 479.413 114.5 480.333 114.5Z" stroke="#F5F5F5" stroke-width="2" stroke-linecap="round" stroke-linejoin="round"/>
</g>
</g>
</g>
</g>
</svg>
